<?xml version="1.0" encoding="utf-8"?>
<!-- Generator: Adobe Illustrator 25.1.0, SVG Export Plug-In . SVG Version: 6.00 Build 0)  -->
<svg version="1.1" id="Layer_1" xmlns="http://www.w3.org/2000/svg" xmlns:xlink="http://www.w3.org/1999/xlink" x="0px" y="0px"
	 viewBox="0 0 20 20" style="enable-background:new 0 0 20 20;" xml:space="preserve">
<style type="text/css">
	.st0{fill:url(#SVGID_1_);}
	.st1{fill:none;stroke:#E3396A;stroke-width:1.7872;stroke-linecap:round;stroke-linejoin:round;stroke-miterlimit:10;}
</style>
<path class="st1" d="M17.6,7.3c0-2.7-1.9-4.9-4.3-4.9c-1.3,0-2.5,0.7-3.3,1.8l0,0l0,0C9.2,3.1,8,2.4,6.7,2.4c-2.4,0-4.3,2.2-4.3,4.9
	c0,1.3,0.4,2.4,1.1,3.3l0,0l0,0C3.7,10.8,3.9,11,4,11.2l6,6.4l6-6.4c0.2-0.2,0.4-0.4,0.5-0.6l0,0v0C17.2,9.8,17.6,8.6,17.6,7.3z"/>
</svg>
