<?xml version="1.0" encoding="utf-8"?>
<!-- Generator: Adobe Illustrator 25.1.0, SVG Export Plug-In . SVG Version: 6.00 Build 0)  -->
<svg version="1.1" id="Layer_1" xmlns="http://www.w3.org/2000/svg" xmlns:xlink="http://www.w3.org/1999/xlink" x="0px" y="0px"
	 viewBox="0 0 100.9 129.4" style="enable-background:new 0 0 100.9 129.4;" xml:space="preserve">
<style type="text/css">
	.st0{fill:#E3396A;}
	.st1{fill:#999897;}
</style>
<g>
	<path class="st0" d="M3.9,88.1l1.9,0.4l0.9,27c-0.2,0.9-0.7,1.3-1.5,1.3c-0.5,0-1.1-0.2-1.4-0.6c-0.5-0.4-0.8-0.9-0.9-1.5L3.9,88.1
		z"/>
	<path class="st0" d="M11.7,87.8c0.8,0,1.5,0.4,1.9,1c0.5,0.6,0.8,1.4,0.8,2.2c0,0.5-0.1,1.1-0.4,1.5c-0.3,0.4-0.7,0.6-1.2,0.6
		c-0.7,0-1.4-0.4-1.8-1c-0.5-0.7-0.7-1.4-0.7-2.2c0-0.5,0.1-1,0.4-1.5C10.8,88,11.2,87.8,11.7,87.8z M11.1,95.3l1.9,0.4
		c0.2,2.3,0.4,5.9,0.6,10.7s0.3,7.9,0.3,9.1c-0.2,0.9-0.7,1.3-1.5,1.3c-0.5,0-1.1-0.2-1.4-0.6c-0.4-0.4-0.8-0.9-0.9-1.5
		c0.1-1.1,0.2-4.1,0.3-8.9C10.7,101,10.8,97.5,11.1,95.3L11.1,95.3z"/>
	<path class="st1" d="M18.6,88.1l1.9,0.4l0.9,27c-0.2,0.9-0.7,1.3-1.5,1.3c-0.5,0-1.1-0.2-1.4-0.6c-0.5-0.4-0.8-0.9-0.9-1.5
		L18.6,88.1z"/>
	<path class="st1" d="M26.4,87.8c0.8,0,1.5,0.4,1.9,1c0.5,0.6,0.8,1.4,0.8,2.2c0,0.5-0.1,1-0.4,1.5c-0.3,0.4-0.7,0.6-1.2,0.6
		c-0.7,0-1.4-0.4-1.8-1c-0.5-0.7-0.7-1.4-0.7-2.2c0-0.5,0.1-1,0.4-1.5C25.5,88,25.9,87.8,26.4,87.8z M25.8,95.3l1.9,0.4
		c0.2,2.3,0.4,5.9,0.6,10.7c0.2,4.9,0.3,7.9,0.3,9.1c-0.2,0.9-0.7,1.3-1.5,1.3c-0.5,0-1.1-0.2-1.4-0.6c-0.4-0.4-0.7-0.9-0.8-1.5
		c0-1.1,0.2-4.1,0.3-8.9S25.6,97.5,25.8,95.3z"/>
	<path class="st1" d="M45.1,95.2l1.9-0.4c0,0.8,0,1.5,0,2c0.2,6.1,0.3,10.1,0.2,11.9c0,0.6,0,1.6,0,3s0,2.4,0,3.1c0,1.5,0,2.9-0.2,4
		c-0.1,1.2-0.3,2.3-0.7,3.5c-0.3,1.1-0.7,2.1-1.3,3c-0.6,0.8-1.5,1.5-2.4,1.9c-1.2,0.5-2.4,0.8-3.7,0.8c-1.2,0-3.4-0.2-6.5-0.5
		c0-0.3-0.1-0.6-0.2-1c-0.1-0.3-0.1-0.6-0.1-0.8c0-0.3,0-0.7,0.1-1l2.6,0.3c1.1,0.2,2.2,0.3,3.4,0.3c1.7,0.1,3.3-0.5,4.4-1.8
		c1-1.2,1.6-3.4,1.6-6.6c-1.3,0.8-2.8,1.2-4.3,1.2c-1.1,0-2.3-0.2-3.3-0.8c-0.9-0.5-1.7-1.2-2.2-2c-0.6-0.9-1.1-1.9-1.3-2.9
		c-0.3-1.1-0.6-2.2-0.7-3.3c-0.1-1.1-0.2-2.3-0.2-3.4c-0.1-2.7,0.6-5.3,2-7.6c1.3-2,3.6-3.1,6-3c1.7,0,3.3,0.5,4.7,1.5
		C45.1,96.2,45.1,95.8,45.1,95.2z M44.7,112.7l0.1-13.4c-0.2-0.5-0.7-0.9-1.6-1.2c-0.9-0.3-1.9-0.5-2.9-0.4c-1.5,0-2.8,0.8-3.5,2.1
		c-0.9,1.5-1.3,3.2-1.2,5c0,1,0.1,2,0.2,3c0.1,1.1,0.4,2.2,0.7,3.2c0.3,1.1,0.8,2.1,1.6,2.8c0.7,0.7,1.8,1.1,2.8,1.1
		c0.8,0,1.6-0.2,2.3-0.6C43.8,113.9,44.3,113.3,44.7,112.7z"/>
	<path class="st1" d="M51,86.7l2.1,0.5c0.1,1.1,0.1,3,0.2,5.5c0,2.5,0.1,4.2,0.2,5.2c1.4-1.5,3.4-2.4,5.4-2.4c1.8,0,3.6,0.7,4.9,2
		c1.4,1.4,2.2,3.3,2.1,5.3v13.7c-0.4,0.2-0.9,0.3-1.4,0.2c-0.6,0-1.1-0.1-1.7-0.2c0-0.2,0-0.6,0-1s0-0.8,0-1c0-1.1,0-3-0.1-5.6
		s-0.1-4.9-0.1-6.7c-0.4-2.6-1.7-3.8-3.9-3.8c-1,0-2,0.3-2.8,0.8c-0.8,0.4-1.5,1-2,1.8c0.1,1.8,0.1,4.4,0.2,7.9s0.1,6.1,0.1,7.6
		c-0.6,0.1-1.1,0.2-1.7,0.2c-0.6,0-1.2-0.1-1.7-0.2c0-1.4,0.1-3.5,0.1-6.5c0-1.3,0-3.7,0-7.2c0-3.5,0-6.5,0-9
		C50.9,91.3,50.9,88.9,51,86.7z"/>
	<path class="st1" d="M80.7,96.5l0.5,1.9c-0.8,0.1-1.9,0.2-3.5,0.4s-2.7,0.4-3.5,0.4c0.2,1.3,0.2,2.6,0.2,3.8c0,1.6,0.1,2.9,0.1,4.1
		c0,1.2,0.2,2.3,0.4,3.5c0.1,1,0.6,1.9,1.3,2.7c0.7,0.6,1.7,1,2.6,0.9c1.1,0,2.1-0.2,3.1-0.6c0.5,1,0.9,1.8,1.2,2.3
		c-2.1,0.8-4.4,1.2-6.7,1.2c-0.8,0-1.6-0.2-2.2-0.8c-0.6-0.5-1.1-1.1-1.4-1.9c-0.4-0.9-0.7-1.9-0.8-2.9c-0.2-1.1-0.3-2.2-0.4-3.3
		c-0.1-1-0.1-2.2-0.1-3.6c0-0.7,0-1.7,0-3s0-2.2,0-2.6c-0.3,0-0.9,0.1-2,0.1h-1.8c-0.2-1.9-0.3-2.8-0.3-2.9c0.3,0.1,0.7,0.1,1,0.1
		c0.2,0,0.7,0,1.2-0.1s1-0.1,1.2-0.1h0.4h0.3c0.1-3.1,0.2-5.6,0.4-7.5l1.9,0.5c0,0.7,0,1.4,0.1,2.2s0,1.6,0,2.5s0,1.7,0,2.2
		c0.7,0.1,1.8,0.1,3.3,0.2S80,96.5,80.7,96.5z"/>
	<path class="st1" d="M97.7,96.6l-0.4,1.7c-2-0.9-4.1-1.5-6.3-1.7c-1-0.1-2,0.1-2.8,0.6c-0.6,0.4-0.8,1.3-0.8,2.6c0,1,0.4,2,1.2,2.6
		c0.8,0.7,1.8,1.3,2.8,1.6c1.1,0.4,2.2,0.8,3.3,1.3c1.1,0.4,2,1.1,2.8,2c0.8,0.9,1.2,2.1,1.1,3.3c0,1.8-0.7,3.5-2,4.7
		c-1.4,1.3-3.2,2.1-5.1,2c-1.5,0-3-0.3-4.3-1c-1.2-0.6-2.3-1.4-3.2-2.4l1.2-1.3c0.3,0.1,0.8,0.4,1.5,0.7s1.1,0.5,1.4,0.6
		c0.4,0.1,0.8,0.2,1.2,0.3c0.6,0.1,1.1,0.2,1.7,0.2c1.1,0,2.3-0.3,3.2-0.9c0.8-0.5,1.3-1.5,1.2-2.4c0-0.6-0.2-1.3-0.6-1.8
		c-0.4-0.5-0.9-0.9-1.5-1.2c-0.6-0.3-1.3-0.6-2.1-0.9s-1.5-0.6-2.3-0.9c-0.7-0.3-1.5-0.8-2.1-1.2c-0.7-0.5-1.2-1.2-1.5-2
		c-0.4-0.9-0.6-2-0.6-3c0-1.5,0.4-3,1.3-4.2c0.9-1.1,2.4-1.8,3.8-1.7c0.7,0,1.5,0.1,2.2,0.3c0.8,0.2,1.4,0.4,1.9,0.6
		s1.2,0.4,2.1,0.8L97.7,96.6z"/>
	<rect x="42.7" y="46.6" class="st1" width="2.6" height="26"/>
	<rect x="42.3" y="40.7" class="st1" width="3.5" height="3.5"/>
	<polygon class="st1" points="13.6,70.1 13.6,35.9 11,35.9 11,72.7 13.6,72.7 13.6,72.7 35.5,72.7 35.5,70.1 	"/>
	<polygon class="st1" points="50.5,17.9 30.8,17.9 37.6,1 50.5,1 	"/>
	<rect x="56.6" y="46.6" class="st1" width="2.6" height="26"/>
	<rect x="56.1" y="40.7" class="st1" width="3.5" height="3.5"/>
	<polygon class="st1" points="88.3,35.9 88.3,70.1 66.4,70.1 66.4,72.7 88.3,72.7 88.3,72.7 91,72.7 91,35.9 	"/>
	<path class="st1" d="M58,23.2v-5.3h13.1L64.4,1h-13v16.9h5.8v5.3c-0.4,0.2-0.6,0.6-0.7,1c-0.1,0.6,0.4,1.1,1,1.2
		c0.6,0.1,1.1-0.4,1.2-1c0-0.1,0-0.1,0-0.2C58.7,23.8,58.4,23.4,58,23.2z"/>
	<path class="st1" d="M56.3,36c0.1-0.1,0.2-0.2,0.2-0.4v-0.1c0-0.6-0.4-1-1-1h-3.8V18.8h-1.6v15.7h-3.8c-0.6,0-1,0.4-1,1v0.1
		c0,0.1,0.1,0.3,0.2,0.4H18.1v2.6h65.7V36H56.3z"/>
</g>
</svg>
